<?xml version="1.0" encoding="UTF-8" standalone="no"?>
<!-- Created with Inkscape (http://www.inkscape.org/) -->

<svg
   width="115.30757mm"
   height="87.553009mm"
   viewBox="0 0 115.30757 87.553009"
   version="1.1"
   id="svg5"
   xml:space="preserve"
   xmlns="http://www.w3.org/2000/svg"
   xmlns:svg="http://www.w3.org/2000/svg"><defs
     id="defs2" /><g
     id="layer1"
     transform="translate(-63.380637,-174.24707)"><g
       id="g6"
       transform="translate(-18.641099,-8.4185603)"
       style="fill:#ffffff"><g
         id="g11"><g
           id="g3"
           style="fill:#ffffff"><path
             d="m 69.396949,363.60535 -0.4959,3.3687 h -6.6861 v -0.513 h 0.2052 q 0.3762,0 0.6327,-0.2394 0.2907,-0.171 0.2907,-0.4959 v -10.0035 q 0,-0.3591 -0.2907,-0.5643 -0.2565,-0.171 -0.6327,-0.171 h -0.2052 v -0.5643 h 3.8133 v 0.5643 h -0.2394 q -0.3762,0 -0.6327,0.171 -0.2565,0.2052 -0.2565,0.5643 v 10.0035 q 0,0.3249 0.2565,0.513 0.2565,0.2223 0.6327,0.2223 h 0.5472 q 1.7613,0 2.6334,-2.9241 z m 8.9262,0 -0.5472,3.3687 h -6.9939 v -0.513 h 0.171 q 0.3762,0 0.6327,-0.2394 0.2565,-0.171 0.2565,-0.4959 v -10.0035 q 0,-0.3591 -0.2565,-0.5643 -0.2565,-0.171 -0.6327,-0.171 h -0.171 v -0.5643 h 6.7887 l 0.4959,3.3516 -0.4959,0.0684 q -0.7866,-2.8557 -2.9241,-2.8557 h -0.3249 q -0.3762,0 -0.6327,0.171 -0.2907,0.2052 -0.2907,0.5643 v 4.2408 h 1.539 q 0.4959,0 0.8721,-0.3933 0.3249,-0.3249 0.3249,-0.8379 v -0.7353 h 0.5643 v 4.4631 h -0.5643 v -0.7353 q 0,-0.513 -0.3249,-0.8379 -0.3762,-0.3933 -0.8721,-0.3933 h -1.539 v 5.2326 q 0,0.3249 0.2907,0.4959 0.2565,0.2394 0.6327,0.2394 h 0.9576 q 1.6929,0 2.5821,-2.9241 z m 8.789401,-1.9323 q -0.9405,0 -0.9405,0.8037 v 4.4973 q -0.4617,-0.2565 -0.8721,-0.2565 -0.2394,0 -0.9234,0.2394 -0.6669,0.3078 -1.1286,0.3078 -2.034901,0 -3.009601,-2.2572 -0.7353,-1.7271 -0.7353,-4.0356 0,-2.3598 0.7866,-4.2921 1.026,-2.4966 3.078001,-2.4966 0.4788,0 1.1799,0.2736 0.684,0.342 0.7524,0.342 0.1368,0 0.684,-0.5472 l 0.2394,3.7791 -0.4104,0.0684 q -0.3933,-1.539 -0.7695,-2.1717 -0.6669,-1.2312 -1.7271,-1.2312 -2.188801,0 -2.188801,6.2244 0,5.7969 2.308501,5.7969 0.5814,0 0.9063,-0.4788 0.342,-0.3762 0.342,-0.9576 v -2.8044 q 0,-0.8037 -0.8208,-0.8037 h -0.2394 v -0.5643 h 3.4884 z m 9.165601,5.301 h -3.5397 v -0.513 q 0.9576,0 0.9576,-0.5472 0,-0.1881 -0.1368,-0.7524 l -0.6156,-2.4966 h -2.7873 l -0.4959,2.4966 q -0.1197,0.5814 -0.1197,0.7524 0,0.5472 0.6327,0.5472 h 0.3078 v 0.513 h -2.6163 v -0.513 q 0.855,0 1.1115,-1.0431 l 2.2572,-10.431 1.2996,-0.8037 2.565,11.0466 q 0.3078,1.1457 1.1799,1.2312 z m -3.4884,-4.8906 -1.3167,-5.5917 -1.1628,5.5917 z m 11.422799,1.2825 q -0.8892,3.8988 -3.0951,3.8988 -1.9152,0 -2.9412,-2.5308 -0.7353,-1.8126 -0.7353,-4.0869 0,-2.3085 0.5985,-4.0185 0.8721,-2.4453 2.7702,-2.4453 0.4788,0 1.0431,0.2736 0.6156,0.342 0.7011,0.342 0.2394,0 0.9747,-0.684 l 0.3249,4.1211 -0.4617,0.0684 q -0.342,-1.5048 -0.7011,-2.2401 -0.6498,-1.2654 -1.7784,-1.2654 -0.9234,0 -1.3851,1.2312 -0.4275,1.3509 -0.4275,4.4631 0,5.9679 2.3256,5.9679 1.4193,0 2.3598,-3.1635 z m 9.405,-8.379 q -0.9747,0 -1.539,1.4877 l -1.6929,4.446 v 4.8051 q 0,0.3249 0.2565,0.513 0.3078,0.2223 0.6327,0.2223 h 0.4275 v 0.513 h -4.2408 v -0.513 h 0.4959 q 0.3249,0 0.6156,-0.2394 0.2736,-0.171 0.2736,-0.4959 v -4.8051 l -1.9323,-4.2579 q -0.7695,-1.6758 -1.3338,-1.6758 v -0.5643 h 3.3174 v 0.5643 q -0.8037,0 -0.8037,0.3762 0,0.4617 0.2394,1.0431 l 1.7442,3.762 1.5561,-3.8304 q 0.1881,-0.5301 0.1881,-0.8037 0,-0.5472 -0.5472,-0.5472 h -0.513 v -0.5643 h 2.8557 z"
             id="text1"
             style="font-size:17.5104px;font-family:DFMingMedium-B5;-inkscape-font-specification:DFMingMedium-B5;stroke-width:0.182399"
             transform="scale(1.3591392,0.73575981)"
             aria-label="LEGACY" /><path
             style="font-size:21.9793px;-inkscape-font-specification:sans-serif;stroke-width:0.22895"
             d="M 93.738886,232.10962 H 91.760749 V 218.15276 H 86.859365 V 216.4164 H 98.61829 v 1.73636 h -4.879404 z m 19.253864,0 h -1.97814 v -7.31911 h -8.04442 v 7.31911 h -1.97814 V 216.4164 h 1.97814 v 6.63775 h 8.04442 v -6.63775 h 1.97814 z m 13.05568,0 h -8.76974 V 216.4164 h 8.76974 v 1.73636 h -6.7916 v 4.90139 h 6.39598 v 1.71438 h -6.39598 v 5.60472 h 6.7916 z"
             id="text2"
             transform="scale(0.97796498,1.0225315)"
             aria-label="THE" /><path
             d="m 93.426047,250.49576 q 0,1.92046 -1.394863,2.99188 -1.394862,1.07142 -3.760064,1.07142 -1.212924,0 -2.24391,-0.18194 -1.030985,-0.18194 -1.718309,-0.50539 v -1.73852 q 0.727755,0.32345 1.799171,0.58625 1.091632,0.2628 2.24391,0.2628 1.597016,0 2.425848,-0.62668 0.828831,-0.62668 0.828831,-1.6981 0,-0.70753 -0.303231,-1.1927 -0.303231,-0.48517 -1.051201,-0.88948 -0.74797,-0.40431 -2.041755,-0.88948 -1.859817,-0.66711 -2.789726,-1.63745 -0.929908,-0.97034 -0.929908,-2.64821 0,-1.13207 0.586247,-1.9609 0.586246,-0.82883 1.617232,-1.27357 1.030985,-0.44474 2.405632,-0.44474 1.172494,0 2.163048,0.22237 0.990555,0.22237 1.819386,0.58625 l -0.566031,1.55658 q -0.74797,-0.32344 -1.637447,-0.54581 -0.889478,-0.22237 -1.819386,-0.22237 -1.354432,0 -2.041756,0.58625 -0.687324,0.56603 -0.687324,1.51615 0,0.72776 0.303231,1.21293 0.303231,0.48516 0.990555,0.88947 0.687324,0.3841 1.859817,0.80862 1.27357,0.46495 2.142832,1.01077 0.889478,0.5256 1.334217,1.27357 0.464954,0.74797 0.464954,1.88003 z m 9.096923,-9.17779 q -2.32477,0 -3.658985,1.55659 -1.334216,1.55658 -1.334216,4.26545 0,2.68864 1.233139,4.26544 1.253352,1.55659 3.739852,1.55659 0.92991,0 1.77895,-0.16172 0.84905,-0.16173 1.67788,-0.40431 v 1.5768 q -0.80862,0.30323 -1.67788,0.44474 -0.84904,0.14151 -2.04175,0.14151 -2.20348,0 -3.679206,-0.9097 -1.475724,-0.90969 -2.223694,-2.58757 -0.727754,-1.67788 -0.727754,-3.942 0,-2.18326 0.7884,-3.84093 0.808616,-1.67787 2.365202,-2.60778 1.556582,-0.95013 3.780282,-0.95013 2.28434,0 3.98243,0.84905 l -0.72775,1.53637 q -0.66711,-0.30323 -1.49594,-0.54582 -0.80862,-0.24258 -1.77896,-0.24258 z m 17.62783,13.03893 h -1.81939 v -6.73173 h -7.39883 v 6.73173 h -1.81939 v -14.43379 h 1.81939 v 6.10505 h 7.39883 v -6.10505 h 1.81939 z m 12.00794,0 h -8.06595 v -14.43379 h 8.06595 v 1.59701 h -6.24656 v 4.50804 h 5.88268 v 1.5768 h -5.88268 v 5.15493 h 6.24656 z m 14.73701,-7.3584 q 0,3.65898 -2.00132,5.5188 -1.98111,1.8396 -5.53902,1.8396 h -4.02287 v -14.43379 h 4.44739 q 2.16305,0 3.76007,0.80861 1.61723,0.80862 2.48649,2.38542 0.86926,1.5768 0.86926,3.88136 z m -1.92046,0.0606 q 0,-2.8908 -1.43529,-4.22502 -1.41508,-1.35443 -4.02287,-1.35443 h -2.3652 v 11.32063 h 1.96089 q 5.86247,0 5.86247,-5.74118 z m 16.09145,-7.13603 v 9.33951 q 0,1.49594 -0.60646,2.70887 -0.60646,1.1927 -1.85982,1.90024 -1.25335,0.68733 -3.1536,0.68733 -2.70887,0 -4.10373,-1.45551 -1.39486,-1.47573 -1.39486,-3.88136 v -9.29908 h 1.81939 v 9.35973 q 0,1.75874 0.9299,2.72908 0.95013,0.97034 2.85038,0.97034 1.96089,0 2.83015,-1.03099 0.88948,-1.0512 0.88948,-2.68865 v -9.33951 z m 3.80052,14.43379 v -14.43379 h 1.81938 v 12.81656 h 6.30721 v 1.61723 z m 18.65882,0 h -8.06595 v -14.43379 h 8.06595 v 1.59701 h -6.24656 v 4.50804 h 5.88268 v 1.5768 h -5.88268 v 5.15493 h 6.24656 z m 7.15624,-14.43379 q 2.68865,0 3.96222,1.03098 1.29378,1.01077 1.29378,3.07274 0,1.15228 -0.42452,1.92047 -0.42452,0.76818 -1.09163,1.23314 -0.6469,0.46495 -1.37465,0.70753 l 3.96222,6.46893 h -2.12262 l -3.49726,-5.96354 h -2.87059 v 5.96354 h -1.81939 v -14.43379 z m -0.10108,1.5768 h -2.06197 v 5.35708 h 2.16305 q 1.75874,0 2.56735,-0.68732 0.80862,-0.70754 0.80862,-2.06198 0,-1.41507 -0.84905,-2.00132 -0.84904,-0.60646 -2.628,-0.60646 z"
             id="text3"
             style="font-size:20.2154px;-inkscape-font-specification:sans-serif;stroke-width:0.210577"
             transform="scale(1.0016221,0.99838057)"
             aria-label="SCHEDULER" /></g><g
           id="g5"
           style="fill:#ffffff"><path
             style="fill:#ffffff;stroke-width:0.116583"
             d="m 94.440712,219.10623 -0.0205,-0.0206 v -1.29183 -0.76265 l 0.0771,-0.0194 0.0771,-0.0194 v -0.1999 -0.19992 h -0.0617 -0.0617 v -0.12337 -0.12339 h 0.0617 0.0617 v -2.99204 -2.99203 h -0.0791 -0.0791 l 0.01,-0.10022 0.01,-0.10021 0.0694,-0.01 0.0694,-0.01 v -0.73479 -0.73482 l -0.0782,-0.0196 -0.0783,-0.0196 0.009,-0.28445 0.009,-0.28446 1.68959,-0.008 1.68959,-0.008 0.0273,-0.0691 0.0273,-0.0691 0.17435,-0.49354 0.17434,-0.49352 0.18451,-0.33173 0.18452,-0.3317 0.14875,-0.37775 0.14875,-0.37773 0.0392,-0.12338 0.0391,-0.12339 0.10696,-0.26218 0.10697,-0.2622 0.1696,-0.3393 0.169591,-0.3393 0.19487,-0.29304 0.19486,-0.29303 0.163677,-0.18235 0.16367,-0.18234 0.22503,-0.19201 0.22504,-0.192 0.20761,-0.10849 0.20761,-0.1085 0.36174,-0.11242 0.36174,-0.11241 0.0238,-0.04 0.0238,-0.04 0.13639,-0.0978 0.13639,-0.0978 0.18056,0.0124 0.18055,0.0124 0.026,-0.0505 0.026,-0.0504 0.02,-0.10795 0.02,-0.10795 0.13496,-0.41907 0.13494,-0.41906 0.0483,-0.0935 0.0483,-0.0935 0.16321,-0.14738 0.16323,-0.14739 0.15423,-0.0722 0.15422,-0.0722 0.0704,-3.5e-4 0.0704,-3.6e-4 0.11075,-0.0462 0.11073,-0.0463 h 0.18545 0.18545 l 0.28358,0.13434 0.28359,0.13434 0.21878,0.25895 0.21878,0.25894 0.13699,0.11365 0.13698,0.11363 0.0318,0.12549 0.0318,0.12547 -0.0245,0.10883 -0.0245,0.10881 -0.0395,0.0476 -0.0395,0.0476 -0.11002,0.0572 -0.11002,0.0572 -0.0923,0.28303 -0.0922,0.28304 -0.0928,0.0639 -0.0928,0.0639 -0.007,0.005 -0.007,0.003 -0.0311,0.27427 -0.0311,0.27425 -0.0416,0.0416 -0.0416,0.0416 -0.0852,-0.0324 -0.0853,-0.0324 -0.1411,0.1391 -0.1411,0.1391 h -0.0392 -0.0391 l -0.0878,0.1311 -0.0878,0.13109 -0.10894,0.009 -0.10893,0.009 -0.18703,-0.12489 -0.18705,-0.1249 h -0.03 -0.03 l -0.0973,0.0485 -0.0973,0.0486 v 0.0178 0.0178 l 0.0662,0.18174 0.0662,0.18173 -0.0399,0.0745 -0.0399,0.0745 0.0547,0.19419 0.0547,0.19419 -0.0209,0.38019 -0.021,0.38018 0.0364,0.23673 0.0364,0.23673 0.0876,0.29303 0.0876,0.29305 0.0328,0.12338 0.0328,0.12338 0.0686,0.13729 0.0686,0.13728 0.18508,0.0422 0.18508,0.0422 0.48996,0.0113 0.48997,0.0113 0.0329,0.0329 0.0329,0.0329 h 0.11115 0.11115 l 0.32224,-0.1928 0.32223,-0.19277 0.23133,0.007 0.23135,0.007 -0.0926,-0.0764 -0.0926,-0.0763 -0.13168,-0.10998 -0.13168,-0.10999 -0.0513,-0.0976 -0.0513,-0.0976 0.002,-0.20049 0.002,-0.20051 0.0515,-0.24278 0.0515,-0.24279 0.0369,-0.11193 0.037,-0.11194 0.42569,9.4e-4 0.4257,9.5e-4 0.0279,0.0449 0.0279,0.0448 0.0689,0.29305 0.0688,0.29302 9.5e-4,0.21592 9.4e-4,0.21592 -0.0639,0.12338 -0.0639,0.12338 -0.18797,0.13882 -0.18796,0.1388 -0.0199,0.0457 -0.0199,0.0457 0.0364,0.0121 0.0364,0.0121 0.0964,0.0862 0.0964,0.0862 -0.0358,0.095 -0.0358,0.095 0.0281,0.0173 0.0281,0.0174 v 0.0716 0.0716 l -0.0431,0.0358 -0.043,0.0357 0.0159,0.0607 0.0159,0.0607 -0.0382,0.0461 -0.0382,0.0461 h -0.058 -0.058 v 0.16967 0.16964 l 0.0601,0.0601 0.0599,0.06 0.1174,0.0191 0.11739,0.0191 0.0708,0.0289 0.0708,0.0288 0.37642,4.7e-4 0.37641,4.7e-4 0.0772,0.039 0.0771,0.039 0.0408,0.0849 0.0408,0.0849 -0.027,0.0838 -0.0268,0.0838 -0.098,0.0462 -0.0979,0.0463 -7e-4,4.21816 -6.9e-4,4.21816 h 0.0863 0.0863 l 0.0371,0.0371 0.0371,0.0371 v 0.21901 0.21901 l -0.0371,0.0371 -0.0371,0.0371 h -0.11613 -0.11612 l -0.0283,0.054 -0.0283,0.054 -0.0216,0.1311 -0.0217,0.13109 -0.0821,4.6e-4 -0.0822,4.7e-4 -0.0771,0.0386 -0.0771,0.0386 -0.0539,0.10752 -0.0539,0.10751 -6e-5,0.17736 -4e-5,0.70654 h -6.44155 -6.441618 z m 4.17447,-2.31308 v -0.2005 h -1.89701 -1.89702 v 0.2005 0.2005 h 1.89702 1.89701 z m 0.4437,0.0899 0.10129,-0.11052 0.0532,-0.0899 0.0531,-0.0899 h -0.20224 -0.20225 v 0.20051 0.2005 h 0.0479 0.0478 z m 4.547058,-0.0977 0.009,-0.19279 h -1.17361 -1.17362 v 0.0302 0.0302 l 0.0838,0.17072 0.0838,0.17073 1.08069,-0.008 1.0807,-0.008 z m 1.36345,0.008 v -0.20049 h -0.55522 -0.55522 v 0.20049 0.2005 h 0.55522 0.55522 z m 1.66569,0 v -0.20049 h -0.70946 -0.70946 v 0.20049 0.2005 h 0.70946 0.70946 z m 0.95621,0 v -0.20049 h -0.33931 -0.3393 v 0.20049 0.2005 h 0.3393 0.33931 z m -12.492528,-0.45766 v -0.0109 l -0.12215,-0.1284 -0.12215,-0.12841 h -0.0166 -0.0166 v 0.11824 0.11824 l 0.0205,0.0206 0.0205,0.0206 h 0.11824 0.11825 z m 0.83102,-0.16696 -0.002,-0.17736 -0.0367,0.0617 -0.0367,0.0617 -0.11697,0.11567 -0.11696,0.11567 h 0.15552 0.15553 z m 0.39946,0.0263 -0.13546,-0.15108 -0.0232,-0.003 -0.0232,-0.003 v 0.13366 0.13366 l 0.0205,0.0206 0.0205,0.0206 h 0.13803 0.13802 z m 0.95957,-0.003 v -0.15422 l -0.008,4e-5 -0.008,4e-5 -0.15131,0.15418 -0.15131,0.15419 h 0.15902 0.15903 z m 0.44623,0.0694 -0.0919,-0.0848 -0.0682,-0.0926 -0.0682,-0.0925 -9.4e-4,0.15681 -9.3e-4,0.15679 0.0205,0.0206 0.0205,0.0206 h 0.14054 0.14053 z m 0.86774,0.0418 0.0165,-0.043 -0.01,-0.10349 -0.01,-0.10348 -0.13545,0.14652 -0.13546,0.14652 h 0.12872 0.12871 z m 0.48947,-0.0418 -0.0919,-0.0848 -0.0682,-0.0926 -0.0682,-0.0925 -9.3e-4,0.17737 -9.3e-4,0.17736 h 0.1611 0.16111 z m 2.360728,0.0712 v -0.0136 l -0.0356,-0.022 -0.0357,-0.022 0.022,0.0357 0.022,0.0357 h 0.0136 0.0136 z m 0.80097,-0.13291 -9.5e-4,-0.14653 -0.0634,0.0771 -0.0634,0.0772 -0.0822,0.0683 -0.0821,0.0683 0.1465,9.4e-4 0.14652,9.5e-4 z m 0.52541,0.13662 v -0.01 l -0.13881,-0.14486 -0.13881,-0.14486 v 0.15477 0.15476 h 0.13881 0.13881 z m 0.82031,-0.0959 0.01,-0.0903 -0.0216,-0.0342 -0.0216,-0.0342 -0.13211,0.13392 -0.13212,0.13394 0.14424,-0.01 0.14425,-0.01 z m 0.41723,-0.0177 -0.1271,-0.12335 -0.005,-0.0386 -0.005,-0.0386 -0.0196,0.13879 -0.0196,0.13881 0.0109,0.0231 0.0109,0.0231 h 0.14071 0.1407 z m 0.94658,-0.041 0.01,-0.14893 -0.1406,0.14674 -0.1406,0.14673 v 0.0116 0.0116 l 0.1311,-0.01 0.1311,-0.01 z m 0.40559,0.0179 -0.13257,-0.14653 -0.01,-0.0129 -0.01,-0.0129 v 0.15936 0.15937 h 0.14274 0.14273 z m 0.95754,-0.0138 v -0.1604 l -0.0265,0.0293 -0.0265,0.0293 -0.11589,0.1311 -0.11589,0.13109 h 0.14239 0.14239 z m 0.30237,9.3e-4 -0.01,-0.15952 -0.0386,-0.0128 -0.0386,-0.0128 v 0.17223 0.17221 h 0.048 0.0478 z m 0.40709,0.13197 v -0.0275 l -0.0488,-0.0187 -0.0488,-0.0187 h -0.0129 -0.0129 v 0.0463 0.0463 h 0.0617 0.0617 z m -11.486548,-0.18548 0.0961,-0.0586 0.0659,-0.13613 0.0659,-0.13614 v -0.10021 -0.10022 l -0.0347,-0.0674 -0.0347,-0.0673 -0.0611,-0.0671 -0.0611,-0.067 0.0205,-0.0331 0.0204,-0.0331 h 0.0947 0.0947 l -0.0203,-0.1311 -0.0203,-0.1311 -0.0754,-0.15422 -0.0754,-0.15423 -0.11765,-0.13544 -0.11765,-0.13542 -0.0699,0.0429 -0.0699,0.0429 -0.11095,0.16644 -0.11095,0.16644 -0.057,0.18332 -0.057,0.18332 v 0.0281 0.0281 h 0.0907 0.0907 l 0.0206,0.0333 0.0206,0.0333 -0.0799,0.0834 -0.0799,0.0834 -0.0187,0.0934 -0.0187,0.0934 0.0343,0.12766 0.0343,0.12766 0.0815,0.0968 0.0815,0.0968 0.0642,0.0259 0.0642,0.026 0.0771,0.002 0.0771,0.002 z m -0.31397,-0.26383 -0.0498,-0.0758 0.0236,-0.10153 0.0236,-0.10151 -0.008,-0.081 -0.008,-0.081 0.0716,-0.0832 0.0716,-0.0832 0.0739,0.0787 0.0739,0.0787 0.009,0.20778 0.009,0.20781 -0.0498,0.055 -0.0498,0.055 h -0.0716 -0.0716 z m 1.65198,0.2654 0.1067,-0.0572 0.0702,-0.1327 0.0702,-0.13269 v -0.10469 -0.10468 l -0.0466,-0.09 -0.0466,-0.0901 -0.0634,-0.0339 -0.0634,-0.0339 0.0366,-0.0441 0.0366,-0.0441 h 0.0928 0.0928 l -0.0181,-0.11113 -0.0181,-0.11113 -0.0888,-0.18982 -0.0888,-0.18983 -0.10004,-0.1 -0.10004,-0.10001 h -0.0402 -0.0403 l -0.0972,0.0995 -0.0972,0.0994 -0.0892,0.18881 -0.0892,0.18881 -0.0212,0.11273 -0.0212,0.11274 h 0.0941 0.0942 l 0.0206,0.0333 0.0206,0.0333 -0.0816,0.0852 -0.0816,0.0852 -0.0178,0.10943 -0.0178,0.10944 0.037,0.11208 0.037,0.11209 0.0796,0.0947 0.0796,0.0947 0.0642,0.0259 0.0642,0.026 0.0622,0.002 0.0621,0.002 z m -0.2808,-0.2547 -0.0652,-0.0652 0.0185,-0.11221 0.0185,-0.11219 3.5e-4,-0.0806 3.5e-4,-0.0808 0.0655,-0.0833 0.0655,-0.0833 0.0844,0.0809 0.0844,0.0809 9.4e-4,0.21456 9.5e-4,0.21457 -0.0656,0.046 -0.0656,0.046 h -0.0394 -0.0394 z m 1.62543,0.26238 0.10443,-0.0496 0.0643,-0.10414 0.0643,-0.10413 0.017,-0.16485 0.017,-0.16486 -0.10172,-0.11585 -0.10173,-0.11586 0.044,-0.0279 0.044,-0.0278 0.0728,-4.7e-4 0.0728,-4.7e-4 -0.0209,-0.11567 -0.021,-0.11567 -0.0766,-0.16965 -0.0766,-0.16965 -0.11261,-0.11568 -0.1126,-0.11567 h -0.0372 -0.0372 l -0.14001,0.15573 -0.14,0.15571 -0.0634,0.16932 -0.0634,0.16932 v 0.0722 0.0721 l 0.0925,0.0185 0.0925,0.0185 v 0.0303 0.0303 l -0.0771,0.11363 -0.0771,0.11364 v 0.0836 0.0837 l 0.035,0.1048 0.0351,0.10489 0.0807,0.0881 0.0807,0.088 0.0617,0.0257 0.0617,0.0257 0.057,0.002 0.057,0.002 z m -0.26612,-0.26029 -0.0631,-0.0631 0.0215,-0.19141 0.0215,-0.19141 0.0452,-0.0694 0.0452,-0.0694 h 0.042 0.042 l 0.0537,0.082 0.0537,0.082 0.007,0.18757 0.007,0.18756 -0.0492,0.0544 -0.0492,0.0544 h -0.0569 -0.0569 z m 1.520541,0.27127 -0.008,-0.0231 v -0.0779 -0.0778 l -0.0753,-0.0287 -0.0753,-0.0287 -0.0346,-0.0647 -0.0346,-0.0647 0.0331,-0.22215 0.0331,-0.22213 -0.0593,-0.30311 -0.0592,-0.3031 -0.0161,-0.0161 -0.0162,-0.0161 -0.0784,0.15474 -0.0784,0.15475 -0.0201,0.12594 -0.0202,0.12592 h 0.0947 0.0947 l 0.0196,0.0318 0.0196,0.0318 -0.0949,0.10817 -0.095,0.10817 v 0.10783 0.10784 l 0.0478,0.11426 0.0477,0.11425 0.068,0.0732 0.068,0.0732 0.0617,0.0261 0.0617,0.026 0.0617,-0.007 0.0617,-0.007 z m 2.451517,-0.0591 0.0781,-0.0719 0.0423,-0.0992 0.0423,-0.0992 v -0.13743 -0.13743 l -0.081,-0.0962 -0.081,-0.0962 -0.0347,0.0115 -0.0347,0.0115 -0.008,0.0899 -0.008,0.0899 -0.002,0.0308 -0.002,0.0308 0.0217,0.0971 0.0217,0.0971 -0.0681,0.0681 -0.0681,0.0681 -0.0861,-0.0172 -0.0862,-0.0172 -0.0394,0.0953 -0.0394,0.0953 0.0595,0.0444 0.0595,0.0445 0.1187,-0.0152 0.11871,-0.0152 z m 1.30709,0.0277 0.1048,-0.0701 0.0556,-0.1073 0.0557,-0.10729 -0.0116,-0.18196 -0.0117,-0.18194 -0.0705,-0.057 -0.0705,-0.0571 0.0192,-0.0499 0.0192,-0.0499 0.0767,0.0147 0.0767,0.0147 v -0.10817 -0.10816 l -0.1086,-0.22579 -0.10861,-0.22579 -0.1025,-0.0782 -0.1025,-0.0782 h -0.0324 -0.0324 l -0.0937,0.10675 -0.0937,0.10675 -0.0751,0.13232 -0.0749,0.13233 -0.0397,0.14942 -0.0397,0.14942 0.0433,0.0277 0.0433,0.0277 0.0337,-0.0122 0.0337,-0.0122 0.0429,0.0266 0.0429,0.0265 -0.0902,0.0941 -0.0902,0.0942 v 0.14696 0.14697 l 0.06,0.12236 0.0599,0.12235 0.10479,0.0698 0.1048,0.0698 h 0.0834 0.0834 z m -0.26843,-0.20036 -0.0339,-0.0227 -0.0355,-0.0674 -0.0356,-0.0674 0.0278,-0.073 0.0278,-0.073 -0.0134,-0.0756 -0.0134,-0.0756 0.0652,-0.1049 0.0652,-0.1049 0.0794,0.0794 0.0794,0.0795 0.01,0.20947 0.01,0.20947 -0.0497,0.055 -0.0498,0.055 -0.0493,-4.6e-4 -0.0493,-4.8e-4 z m 1.61353,0.20979 0.099,-0.0603 0.063,-0.12336 0.063,-0.12337 v -0.1358 -0.13579 l -0.092,-0.11587 -0.092,-0.11587 0.0187,-0.0303 0.0187,-0.0303 0.0923,0.0185 0.0922,0.0185 -0.0219,-0.14645 -0.0219,-0.14644 -0.0796,-0.16279 -0.0796,-0.16279 -0.10403,-0.10707 -0.10402,-0.10709 h -0.0411 -0.0411 l -0.1151,0.1274 -0.11509,0.12739 -0.0754,0.16455 -0.0754,0.16456 -0.0173,0.10686 -0.0173,0.10686 0.10152,0.01 0.10152,0.01 0.0117,0.0358 0.0117,0.0358 -0.0591,0.0568 -0.0591,0.0567 -0.0351,0.0673 -0.0351,0.0673 1.3e-4,0.056 1e-4,0.056 0.0319,0.11471 0.0318,0.11471 0.0811,0.0964 0.0812,0.0964 0.0641,0.0259 0.0641,0.026 0.0772,0.002 0.0771,0.002 z m -0.31317,-0.25474 -0.048,-0.0685 v -0.0684 -0.0684 l 0.0257,-0.0159 0.0257,-0.0159 -0.0138,-0.094 -0.0138,-0.094 0.0505,-0.077 0.0505,-0.077 h 0.0448 0.0448 l 0.0504,0.0769 0.0504,0.0769 0.0116,0.19093 0.0117,0.19094 -0.0508,0.0561 -0.0508,0.0561 h -0.0705 -0.0706 z m 1.67343,0.25288 0.10206,-0.0622 0.0593,-0.13045 0.0593,-0.13047 6.9e-4,-0.13002 7e-4,-0.13001 -0.0979,-0.11157 -0.0979,-0.11158 0.044,-0.0279 0.044,-0.0278 0.0694,-4.6e-4 0.0694,-4.7e-4 -7.1e-4,-0.0848 -6.9e-4,-0.0848 -0.0708,-0.1721 -0.0708,-0.17211 -0.0821,-0.10773 -0.0821,-0.10773 -0.0782,-0.0418 -0.0782,-0.0418 -0.10077,0.0977 -0.10076,0.0977 -0.0839,0.16561 -0.0839,0.16562 -0.0268,0.14322 -0.0268,0.14323 h 0.0867 0.0867 l 0.0194,0.0315 0.0195,0.0315 -0.0793,0.0942 -0.0793,0.0942 v 0.14986 0.14985 l 0.0329,0.0868 0.0329,0.0868 0.0673,0.0727 0.0673,0.0727 0.0617,0.0255 0.0617,0.0254 0.0771,0.002 0.0772,0.002 z m -0.31998,-0.26018 -0.0496,-0.0759 0.0235,-0.10152 0.0236,-0.10153 -0.008,-0.081 -0.008,-0.081 0.0716,-0.0832 0.0716,-0.0832 0.0723,0.077 0.0724,0.077 0.0123,0.2079 0.0123,0.20791 -0.0512,0.0566 -0.0512,0.0566 h -0.0716 -0.0717 z m 1.88926,0.16261 -0.0163,-0.0405 -0.002,0.0591 -0.002,0.0591 0.0186,-0.0186 0.0186,-0.0186 z m -0.28078,-0.2025 -0.0179,-0.018 -0.0183,0.0183 -0.0182,0.0182 0.0249,0.0718 0.0249,0.0718 0.0114,-0.0722 0.0113,-0.072 z m -0.26467,-0.0693 v -0.0617 h -0.0308 -0.0308 v 0.0617 0.0617 h 0.0308 0.0308 z m -0.36732,-0.21857 -0.0297,-0.0745 -0.002,0.0796 -0.002,0.0797 0.0224,0.0224 0.0225,0.0224 0.009,-0.0277 0.009,-0.0277 z m 0.95291,-0.43691 -4.6e-4,-0.19279 -0.0265,-0.0417 -0.0265,-0.0417 -0.0216,0.20279 -0.0217,0.20279 0.0196,0.0317 0.0196,0.0317 h 0.0289 0.0289 z m -5.42885,0.0771 -4.7e-4,-0.0848 -0.0273,-0.0432 -0.0273,-0.0432 -0.0653,0.12806 -0.0654,0.12805 h 0.0932 0.0932 z m 5.1178,-0.16967 -0.003,-0.13109 -0.0248,0.0771 -0.0247,0.0772 -0.003,0.054 -0.003,0.054 h 0.0308 0.0308 z m -0.27671,-0.15422 -0.002,-0.22363 -0.0265,0.0617 -0.0265,0.0617 -0.002,0.16194 -0.002,0.16195 h 0.0308 0.0308 z m -11.054738,-3.44058 -0.0147,-0.0146 -0.11006,0.0966 -0.11008,0.0966 h -0.0879 -0.0879 l -0.0186,0.0694 -0.0186,0.0694 -4.6e-4,1.09016 -4.7e-4,1.09015 0.0609,0.0775 0.0609,0.0774 -0.0461,0.0891 -0.0461,0.0891 0.14187,0.17416 0.14187,0.17418 0.067,0.13785 0.067,0.13785 0.008,-1.72005 0.008,-1.72006 z m 1.35721,0 -0.0147,-0.0146 -0.11006,0.0966 -0.11007,0.0966 h -0.0881 -0.0881 l -0.0187,0.0488 -0.0187,0.0488 v 1.11077 1.11076 l 0.0621,0.079 0.0621,0.079 -0.0467,0.0712 -0.0467,0.0713 v 0.0419 0.0419 l 0.0799,0.0748 0.0799,0.0747 0.1283,0.19807 0.12831,0.1981 0.008,-1.70669 0.008,-1.7067 z m 0.55028,2.99117 0.14182,-0.16409 -0.0488,-0.0943 -0.0488,-0.0944 0.0645,-0.0874 0.0645,-0.0874 -3.5e-4,-1.02686 -3.5e-4,-1.02688 -0.0191,-0.11567 -0.0191,-0.11568 h -0.10701 -0.10702 l -0.10795,-0.10794 -0.10796,-0.10795 h -0.0124 -0.0123 l 5.7e-4,1.73507 5.9e-4,1.73509 0.0886,-0.13882 0.0886,-0.1388 z m 1.19082,0.21469 0.12431,-0.19234 -0.0451,-0.37639 -0.0451,-0.3764 -0.0306,-0.24677 -0.0306,-0.24677 -0.0615,-0.21591 -0.0615,-0.21592 -0.002,1.04618 -0.002,1.04619 0.0147,-0.0148 0.0148,-0.0148 z m 3.228768,0.11134 -0.0156,-0.0386 v 0.0771 0.0771 l 0.0156,-0.0386 0.0156,-0.0386 z m 1.70821,-0.0617 0.0991,-0.16194 0.11883,-0.12971 0.11883,-0.12971 -0.0514,-0.0895 -0.0515,-0.0896 0.0674,-0.0857 0.0674,-0.0857 -3.5e-4,-1.03688 -3.5e-4,-1.03689 -0.019,-0.11567 -0.0191,-0.11567 h -0.10295 -0.10293 l -0.10719,-0.10719 -0.10718,-0.10718 -0.0195,0.0613 -0.0195,0.0614 0.009,1.66523 0.009,1.66524 h 0.006 0.006 z m 1.00252,-3.2555 -0.0147,-0.0146 -0.11008,0.0966 -0.11007,0.0966 h -0.0893 -0.0895 l -0.0252,0.0694 -0.0251,0.0694 0.01,1.09481 0.01,1.09479 0.0501,0.0553 0.0501,0.0553 -0.0392,0.10838 -0.0392,0.10828 0.0403,0.0525 0.0403,0.0525 0.0997,0.11428 0.0997,0.11428 0.0706,0.13248 0.0707,0.1325 0.008,-1.70912 0.008,-1.7091 z m -10.053598,3.28635 0.0513,-0.10022 0.14694,-0.18558 0.14695,-0.18558 -0.0461,-0.0881 -0.0461,-0.0881 0.0647,-0.0875 0.0647,-0.0875 v -1.09374 -1.09375 l -0.0187,-0.0488 -0.0187,-0.0488 h -0.0824 -0.0824 l -0.0763,-0.0525 -0.0762,-0.0526 -0.0345,-0.0455 -0.0345,-0.0456 -0.0163,0.12127 -0.0163,0.12128 -0.004,1.58085 -0.004,1.58085 h 0.0151 0.0151 z m 1.35823,-0.0157 0.0661,-0.11544 0.13181,-0.14939 0.13182,-0.14939 -0.0381,-0.10534 -0.0381,-0.10534 0.0638,-0.0811 0.0637,-0.081 v -1.05616 -1.05616 l -0.0193,-0.0964 -0.0193,-0.0964 h -0.10817 -0.10818 l -0.10094,-0.10707 -0.10095,-0.10708 -0.0184,0.0478 -0.0183,0.0479 v 1.66314 1.66315 l 0.0232,-2.3e-4 0.0232,-2.5e-4 z m 2.30771,-3.02389 -0.0481,-0.16563 -0.0463,0.0385 -0.0464,0.0384 -0.11398,0.0185 -0.11399,0.0185 -0.0247,0.18457 -0.0247,0.18455 0.009,0.96071 0.009,0.96069 0.0598,0.066 0.0598,0.066 -0.0366,0.1013 -0.0366,0.1013 v 0.0191 0.0191 l 0.12387,0.14311 0.12385,0.1431 0.0689,0.11978 0.0689,0.11978 0.008,-1.48591 0.008,-1.48592 z m 4.234728,2.76038 0.13663,-0.14809 -0.0224,-0.0524 -0.0224,-0.0524 -0.0137,-0.0789 -0.0137,-0.0789 0.0489,-0.0407 0.0489,-0.0407 -4.7e-4,-0.26613 -4.7e-4,-0.26612 -0.11846,0.21592 -0.11845,0.21593 -0.11237,0.18507 -0.11237,0.18507 -9e-5,0.3079 -7e-5,0.30791 0.082,-0.12284 0.082,-0.12282 z m 0.79891,-3.00398 -0.0114,-0.0114 -0.1,0.0934 -0.1,0.0934 h -0.10109 -0.10108 l -0.0186,0.0694 -0.0186,0.0694 -4.7e-4,1.09015 -4.5e-4,1.09017 0.0621,0.079 0.0622,0.079 -0.0499,0.0762 -0.0499,0.0762 0.0335,0.0733 0.0335,0.0733 h 0.0282 0.0282 l 0.1498,0.21925 0.1498,0.21924 0.008,-1.68929 0.008,-1.6893 z m 1.70486,3.26772 0.0603,-0.11567 0.13844,-0.16658 0.13843,-0.16658 -0.0486,-0.074 -0.0486,-0.074 0.0663,-0.0897 0.0663,-0.0897 -4.7e-4,-1.08856 -4.6e-4,-1.08857 -0.0186,-0.0694 -0.0186,-0.0694 h -0.0889 -0.0889 l -0.12347,-0.11155 -0.12347,-0.11154 v 1.71553 1.71552 h 0.0148 0.0148 z m 1.02049,-1.60099 v -1.71668 l -0.10944,0.1127 -0.10944,0.11269 h -0.10315 -0.10316 l -0.0187,0.0488 -0.0187,0.0488 v 1.11077 1.11076 l 0.0611,0.0776 0.0611,0.0777 -0.0457,0.0652 -0.0457,0.0652 v 0.0486 0.0486 l 0.12592,0.12194 0.12591,0.12193 0.0776,0.13109 0.0776,0.13109 h 0.0125 0.0125 z m 0.30103,-0.0453 -0.008,-1.61047 -0.0386,-0.0129 -0.0386,-0.0129 9.4e-4,1.7068 9.5e-4,1.70679 0.0453,-0.0834 0.0453,-0.0834 z m 0.77791,-0.12524 9.4e-4,-1.40913 -0.0313,-0.0193 -0.0313,-0.0193 4.6e-4,1.47471 4.6e-4,1.4747 0.0293,-0.0463 0.0293,-0.0463 z m -0.21525,-0.0715 v -1.33815 l -0.0308,-0.0191 -0.0308,-0.0191 v 1.37628 1.37627 l 0.0308,-0.0191 0.0308,-0.0191 z m 0.39325,-0.62462 -0.009,-0.6709 v 1.34179 1.34179 l 0.009,-0.67089 0.009,-0.6709 z m -0.61284,0.664 0.005,-1.27322 -0.0309,-0.0462 -0.0309,-0.0463 -4.7e-4,1.33589 -4.7e-4,1.33591 0.0266,-0.0165 0.0266,-0.0164 z m -6.02799,0.61338 0.0784,-0.1338 -2.2e-4,-0.3366 -2.4e-4,-0.33658 -0.0916,-0.15973 -0.0916,-0.15972 -0.0315,-0.0195 -0.0315,-0.0195 v 0.09 0.0901 l 0.049,0.42497 0.049,0.42496 -0.0109,0.13456 -0.0109,0.13456 h 0.007 0.007 z m 0.32472,-0.45815 4.6e-4,-0.0522 -0.0308,-0.0191 -0.0308,-0.0191 4.7e-4,0.11749 4.7e-4,0.11748 0.03,-0.0462 0.03,-0.0462 z m 1.68216,-1.37445 -0.0172,-0.0694 h -0.0918 -0.0918 l -0.12343,-0.1115 -0.12342,-0.11152 0.0756,0.19634 0.0756,0.19633 0.1403,0.34517 0.14029,0.34516 0.007,0.0404 0.007,0.0404 0.01,-0.401 0.01,-0.40099 z m -7.709898,-0.36296 0.0203,-0.10849 -0.038,-0.0918 -0.038,-0.0918 0.0518,-0.0791 0.0518,-0.0791 0.0981,0.01 0.0981,0.01 0.0402,0.0842 0.0402,0.0842 -0.0323,0.0602 -0.0322,0.0602 v 0.10816 0.10816 l 0.0311,0.0193 0.0311,0.0193 0.0581,-0.0184 0.0581,-0.0184 0.0419,-0.0992 0.0419,-0.0992 -0.003,-0.1388 -0.003,-0.13882 -0.0531,-0.10162 -0.053,-0.10163 -0.0988,-0.0602 -0.0988,-0.0602 -0.0704,-1.1e-4 -0.0704,-1.2e-4 -0.10257,0.0429 -0.10257,0.0428 -0.0661,0.13652 -0.0661,0.13654 v 0.0935 0.0935 l 0.0348,0.1049 0.0348,0.10489 0.0482,0.0386 0.0482,0.0386 h 0.039 0.039 z m 1.35297,9.3e-4 0.0201,-0.10751 -0.0322,-0.0601 -0.0322,-0.0602 v -0.0536 -0.0536 l 0.0511,-0.0565 0.0511,-0.0565 h 0.0702 0.0701 l 0.0513,0.0513 0.0513,0.0513 -0.0184,0.11067 -0.0184,0.11068 0.002,0.10675 0.002,0.10675 0.0126,0.0125 0.0126,0.0125 0.0733,-0.0185 0.0733,-0.0184 0.0361,-0.0793 0.0361,-0.0793 v -0.16097 -0.16096 l -0.0566,-0.10752 -0.0566,-0.10751 -0.10535,-0.0539 -0.10534,-0.0539 -0.0621,-6e-5 -0.0621,-4e-5 -0.1051,0.0564 -0.10509,0.0564 -0.0583,0.10555 -0.0583,0.10555 0.0109,0.19104 0.0109,0.19104 0.0574,0.0634 0.0574,0.0634 h 0.0534 0.0534 z m 1.35721,0 0.0201,-0.10751 -0.0322,-0.0601 -0.0322,-0.0602 v -0.0536 -0.0536 l 0.0511,-0.0565 0.0511,-0.0565 h 0.0621 0.0622 l 0.0565,0.0511 0.0564,0.0511 v 0.0816 0.0816 l -0.0328,0.0328 -0.0328,0.0328 0.0271,0.10447 0.0271,0.10446 h 0.0744 0.0744 l 0.0304,-0.0863 0.0304,-0.0862 -0.057,-0.22219 -0.057,-0.22219 -0.031,-0.0686 -0.031,-0.0686 -0.10032,-0.0331 -0.10031,-0.0331 -0.0799,0.02 -0.0799,0.0201 -0.0924,0.10523 -0.0924,0.10522 -0.0196,0.0782 -0.0197,0.0782 0.0147,0.15287 0.0147,0.15288 0.0555,0.0615 0.0555,0.0613 h 0.0534 0.0534 z m 4.959678,-0.14643 -0.009,-0.23646 0.0654,-0.0351 0.0654,-0.0351 0.0753,0.0188 0.0753,0.0188 0.0347,0.0762 0.0347,0.0762 -0.0358,0.0785 -0.0358,0.0785 v 0.0878 0.0878 l 0.0488,0.0187 0.0488,0.0187 h 0.0287 0.0288 l 0.0611,-0.10021 0.0611,-0.10022 1e-4,-0.0948 1.2e-4,-0.0948 -0.0492,-0.14425 -0.0491,-0.14426 -0.087,-0.0619 -0.087,-0.0619 -0.0909,-0.0182 -0.0909,-0.0182 -0.0938,0.0485 -0.0938,0.0486 -0.0605,0.10098 -0.0605,0.10098 -0.0175,0.0945 -0.0175,0.0945 0.0261,0.11603 0.0261,0.11604 0.0548,0.0605 0.0548,0.0605 0.0481,-0.01 0.0481,-0.01 z m 1.36974,0.17219 0.0205,-0.0818 -0.0354,-0.0978 -0.0354,-0.0978 v -0.0364 -0.0364 l 0.0617,-0.0617 0.0617,-0.0617 h 0.0595 0.0595 l 0.0485,0.0485 0.0484,0.0484 v 0.0885 0.0886 l -0.0326,0.0201 -0.0327,0.0202 0.0205,0.0973 0.0204,0.0973 0.0245,0.0261 0.0245,0.0263 0.0601,-0.0191 0.0601,-0.0191 0.0353,-0.0776 0.0353,-0.0776 0.0189,-0.11823 0.0189,-0.11823 -0.0629,-0.14213 -0.0629,-0.14213 -0.10238,-0.0641 -0.10229,-0.0641 -0.11871,0.0145 -0.1187,0.0145 -0.077,0.0719 -0.077,0.0719 -0.0467,0.0898 -0.0467,0.0899 0.0134,0.16176 0.0134,0.16176 0.0524,0.08 0.0524,0.0799 h 0.0603 0.0603 z m 1.35116,-0.0258 0.0202,-0.10751 -0.0322,-0.0602 -0.0322,-0.0601 v -0.0589 -0.0589 l 0.0589,-0.0533 0.0589,-0.0533 0.0868,0.01 0.0868,0.01 0.0373,0.0752 0.0373,0.0752 -0.0381,0.0945 -0.0381,0.0945 0.0171,0.0925 0.0171,0.0926 0.0674,0.01 0.0674,0.01 0.0524,-0.10141 0.0524,-0.1013 9.5e-4,-0.15503 9.5e-4,-0.15503 -0.0536,-0.10163 -0.0536,-0.10164 -0.0988,-0.0602 -0.0988,-0.0602 -0.0775,-1.3e-4 -0.0776,-1.1e-4 -0.10512,0.0564 -0.10512,0.0564 -0.0583,0.10556 -0.0583,0.10555 0.0113,0.17359 0.0113,0.1736 0.053,0.081 0.0531,0.0809 h 0.0575 0.0575 z m 1.31307,-0.1238 v -0.0155 h -0.0155 -0.0155 v 0.0155 0.0155 h 0.0155 0.0155 z m -0.01,-0.50125 -0.0142,-0.054 v 0.10794 0.10796 l 0.0142,-0.054 0.0142,-0.054 z m -11.012048,-0.26623 -0.0132,-0.0345 -0.17425,0.0109 -0.17424,0.0109 0.12116,0.0878 0.12117,0.0878 0.0568,0.0967 0.0568,0.0967 0.009,-0.16058 0.009,-0.16058 z m 1.36693,0.16598 v -0.18507 l -0.17737,9.4e-4 -0.17736,9.5e-4 0.11205,0.0991 0.11205,0.0991 0.0534,0.0848 0.0534,0.0848 h 0.0119 0.0118 z m 0.29129,0.0959 0.0462,-0.0892 0.13041,-0.0959 0.13041,-0.0959 -0.11404,-0.003 -0.11403,-0.003 -0.0694,-0.003 -0.0694,-0.003 -0.009,0.19203 -0.009,0.19204 h 0.0161 0.0161 z m 5.196238,-0.2152 0.11097,-0.0644 -0.19279,-7.1e-4 -0.19279,-7e-4 v 0.19125 0.19126 l 0.0818,-0.12618 0.0818,-0.12618 z m 0.83583,0.11929 V 210.393 h -0.17072 -0.17072 l 0.10933,0.096 0.10933,0.096 0.0526,0.0891 0.0526,0.0891 h 0.009 0.009 z m 0.42589,-0.0624 0.0214,-7e-4 0.0771,-0.0603 0.0772,-0.0603 -0.17735,-7e-4 -0.17738,-6.9e-4 2.4e-4,0.19278 2.3e-4,0.19277 0.0786,-0.13107 0.0785,-0.1311 z m 0.91863,-0.1113 -0.0163,-0.0423 h -0.12183 -0.12182 l -0.0502,0.0193 -0.0503,0.0193 0.10631,0.0723 0.10632,0.0722 0.0725,0.1167 0.0725,0.1167 0.01,-0.16598 0.01,-0.16598 z m 1.36021,0.008 -0.0131,-0.0345 -0.17677,0.0109 -0.17677,0.0109 0.0893,0.0544 0.0893,0.0544 0.0835,0.0992 0.0835,0.0992 0.006,0.0361 0.006,0.0361 0.0114,-0.16597 0.0114,-0.16597 z m -11.205178,0.0391 0.095,-0.058 -0.17451,-1e-4 -0.17451,-1.3e-4 -0.0106,0.16745 -0.0106,0.16745 0.09,-0.1094 0.09,-0.10941 z m 1.13083,0.19882 0.0438,-0.0824 0.12029,-0.0874 0.1203,-0.0874 h -0.17142 -0.17143 l -0.0106,0.16969 -0.0106,0.1697 0.018,-4e-5 0.0179,-5e-5 z m 9.096308,-0.0785 7e-4,-0.022 0.11512,-0.0782 0.11512,-0.0782 h -0.17682 -0.17681 l 7.1e-4,0.17736 7e-4,0.17738 0.0603,-0.0771 0.0603,-0.0771 z m 2.21116,0.0605 -0.0156,-0.0386 v 0.0771 0.0772 l 0.0156,-0.0386 0.0156,-0.0386 z m -5.27684,-0.0925 -0.0111,-0.16195 -0.0807,-0.01 -0.0808,-0.01 v 0.0185 0.0185 l 0.0777,0.1532 0.0776,0.15321 h 0.0142 0.0142 z m 4.90733,0.0945 -0.0163,-0.0406 -0.002,0.0592 -0.002,0.0591 0.0186,-0.0186 0.0186,-0.0186 z m -0.56458,-0.12965 0.003,-0.10892 -0.0308,-0.009 -0.0308,-0.009 -0.01,0.15422 -0.01,0.15423 0.0367,-0.0364 0.0367,-0.0364 z m 0.74967,-0.0863 -0.0163,-0.0405 -0.002,0.0591 -0.002,0.0591 0.0186,-0.0186 0.0186,-0.0186 z m -11.771078,-0.35313 -0.0639,-0.0812 v -0.11923 -0.11922 l 0.0636,-0.0636 0.0635,-0.0636 0.0643,0.01 0.0643,0.01 0.0337,0.0537 0.0337,0.0537 -0.069,0.0483 -0.069,0.0483 v 0.0269 0.027 l 0.0485,0.0484 0.0484,0.0485 h 0.10871 0.10871 l 0.0902,-0.0532 0.0902,-0.0532 0.061,-0.12608 0.061,-0.12609 v -0.13475 -0.13474 l -0.0641,-0.13246 -0.0641,-0.13245 -0.11823,-0.0937 -0.11824,-0.0937 -0.11757,-0.0491 -0.11758,-0.0492 -0.17057,-9.4e-4 -0.17057,-9.5e-4 -0.11456,0.0378 -0.11455,0.0378 -0.0755,0.0898 -0.0755,0.0898 -0.0193,0.0879 -0.0193,0.088 0.0307,0.0809 0.0307,0.0809 0.0752,0.0494 0.0752,0.0493 0.0804,-0.0202 0.0804,-0.0201 v -0.0429 -0.0429 h -0.0555 -0.0555 l -0.037,-0.0371 -0.037,-0.0371 v -0.0532 -0.0532 l 0.0484,-0.0485 0.0484,-0.0485 h 0.0881 0.088 l 0.0639,0.0812 0.0639,0.0812 v 0.0869 0.0869 l -0.0369,0.0809 -0.0369,0.081 -0.085,0.044 -0.085,0.0439 h -0.12029 -0.12028 l -0.12414,-0.0898 -0.12414,-0.0898 -0.006,0.29087 -0.006,0.29086 0.0188,0.0303 0.0188,0.0304 h 0.40142 0.40141 z m 2.35256,0.0635 0.0508,-0.0195 -0.0176,-0.0285 -0.0176,-0.0285 -0.25214,-0.1264 -0.25215,-0.1264 -0.28651,-0.18517 -0.28652,-0.18519 -0.0167,0.0166 -0.0166,0.0166 0.0509,0.0775 0.0509,0.0776 -0.01,0.1 -0.01,0.1001 -0.0409,0.0135 -0.0409,0.0135 -0.15191,-0.15761 -0.15191,-0.15759 h -0.0153 -0.0153 v 0.0865 0.0864 l -0.0801,0.16083 -0.0801,0.16081 -0.0586,0.0314 -0.0586,0.0314 v 0.0279 0.0279 l 0.82812,0.002 0.8281,0.002 z m 4.245218,-0.006 -9.4e-4,-0.0231 -0.0453,-0.06 -0.0453,-0.0599 v -0.10447 -0.10446 l 0.0902,-0.0902 0.0902,-0.0902 h 0.0487 0.0487 l 0.0648,0.0648 0.0648,0.0648 -0.0262,0.0248 -0.0263,0.0247 -0.0617,0.011 -0.0617,0.011 -0.01,0.0844 -0.01,0.0843 0.0769,0.0351 0.0769,0.0351 0.077,-0.0194 0.077,-0.0193 0.0991,-0.0834 0.0991,-0.0834 0.042,-0.10065 0.0421,-0.10076 v -0.13373 -0.13375 l -0.0781,-0.1568 -0.0781,-0.15679 -0.11465,-0.0789 -0.11466,-0.0789 -0.0925,-0.0354 -0.0926,-0.0353 -0.17233,-0.002 -0.17234,-0.002 -0.0358,0.0222 -0.0358,0.0222 v 0.11166 0.11166 l 0.10796,0.0989 0.10794,0.0989 v 0.10729 0.10741 l -0.0624,0.0794 -0.0624,0.0793 0.009,0.24859 0.009,0.24859 0.0848,1e-4 0.0848,9e-5 z m 1.41334,-0.24212 0.009,-0.24982 -0.1273,-0.11501 -0.1273,-0.11501 -0.0116,0.0116 -0.0116,0.0116 0.076,0.15023 0.076,0.15024 v 0.0859 0.0859 l -0.0352,0.0771 -0.0352,0.0771 -0.14222,-0.15734 -0.14223,-0.15735 -0.0199,-0.0495 -0.0199,-0.0495 -0.0217,0.0617 -0.0217,0.0617 -0.0322,0.0862 -0.0323,0.0862 -0.0882,0.0945 -0.0882,0.0945 v 0.013 0.013 l 0.39329,-0.009 0.39328,-0.009 z m 0.96019,0.25242 -0.0129,-0.0129 -0.16966,-0.0668 -0.16965,-0.0668 -0.17368,-0.10545 -0.17369,-0.10544 h -0.0116 -0.0116 l 0.01,0.14652 0.01,0.14651 0.0127,0.0386 0.0127,0.0386 h 0.34542 0.34541 z m 1.75941,-0.27249 -9.5e-4,-0.28532 -0.0583,0.11022 -0.0583,0.11023 -0.12885,0.11641 -0.12884,0.1164 -0.10457,0.0437 -0.10458,0.0437 v 0.015 0.015 h 0.29304 0.29303 z m 0.30983,0.11945 v -0.16587 l -0.0463,-0.0383 -0.0463,-0.0383 v 0.18371 0.18371 l 0.0206,0.0206 0.0206,0.0206 h 0.0257 0.0257 z m 0.3196,0.0888 -0.0178,-0.0462 h -0.0121 -0.0121 v 0.0462 0.0464 h 0.0299 0.0299 z m 0.26647,-0.0733 v -0.0271 l -0.0767,-0.17348 -0.0767,-0.1735 h -0.0473 -0.0473 l 0.0202,0.0848 0.0202,0.0848 0.0305,0.0617 0.0305,0.0617 0.047,0.054 0.0471,0.054 h 0.026 0.026 z m -2.25175,-0.0984 v -0.0945 l 0.10022,0.01 0.10021,0.01 0.01,0.0848 0.01,0.0848 h 0.11485 0.11486 l 0.18383,-0.0476 0.18385,-0.0476 0.10796,-0.0853 0.10794,-0.0853 0.0694,-0.13585 0.0694,-0.13584 -6e-5,-0.13997 -5e-5,-0.13999 -0.0539,-0.10577 -0.0539,-0.10577 -0.0826,-0.0604 -0.0826,-0.0604 -0.14881,-0.0138 -0.14881,-0.0138 -0.10751,0.0731 -0.10751,0.0731 -0.0402,0.0761 -0.0402,0.0761 0.0148,0.12307 0.0148,0.12307 0.067,0.0543 0.0671,0.0543 h 0.084 0.084 l 0.0214,-0.0214 0.0214,-0.0214 -0.0826,-0.0659 -0.0826,-0.0659 0.0209,-0.0835 0.0209,-0.0835 0.0694,-0.0316 0.0694,-0.0316 0.0821,0.0311 0.0821,0.0313 0.0302,0.10943 0.0302,0.10943 -0.0303,0.10955 -0.0303,0.10956 -0.0984,0.0601 -0.0984,0.0599 -0.1037,1.3e-4 -0.10381,1.2e-4 -0.1201,-0.0675 -0.12011,-0.0675 -0.0537,-0.11678 -0.0537,-0.11677 -0.0241,-8.1e-4 -0.024,-8.3e-4 -0.0176,0.0457 -0.0175,0.0457 -0.10087,0.0623 -0.10086,0.0623 -0.10436,-1.1e-4 -0.10436,-1.2e-4 -0.0995,-0.0607 -0.0995,-0.0605 -0.0188,-0.0859 -0.0188,-0.0858 -0.0119,-0.0386 -0.0119,-0.0386 h -0.15659 -0.1566 l -0.0772,-0.0771 -0.0771,-0.0772 -0.11427,9.4e-4 -0.11426,9.5e-4 -0.15985,0.0374 -0.15984,0.0374 0.29451,0.24397 0.2945,0.24396 0.2339,0.13331 0.23391,0.13329 0.18666,0.0604 0.18665,0.0604 0.0771,0.0129 0.0771,0.0129 0.0386,0.005 0.0386,0.005 z m 2.59961,-0.1149 0.0167,-0.1323 -0.0512,0.0159 -0.0512,0.0159 -0.0357,-0.0224 -0.0357,-0.0224 -0.0309,-0.10795 -0.0309,-0.10794 -0.003,0.0977 -0.003,0.0977 0.0186,0.0486 0.0186,0.0486 0.0254,-0.0157 0.0254,-0.0157 0.0153,0.0545 0.0153,0.0545 0.0214,0.10544 0.0214,0.10544 0.0232,-0.0437 0.0232,-0.0438 z m -9.696858,-0.17633 -0.039,-0.17462 -0.15647,-0.10032 -0.15646,-0.10032 -0.0407,-0.0495 -0.0407,-0.0495 0.0793,-0.21973 0.0793,-0.21972 v -0.0136 -0.0136 l -0.8097,9.5e-4 -0.8097,9.4e-4 0.27761,0.14404 0.27762,0.14404 0.18507,0.0417 0.18508,0.0417 0.13109,0.0164 0.13109,0.0164 v 0.0397 0.0397 l -0.0586,0.0724 -0.0585,0.0724 0.20511,0.13581 0.20511,0.1358 0.2149,0.11758 0.2149,0.11757 0.0114,-0.0114 0.0114,-0.0114 z m 6.973888,-0.34616 0.0662,-0.0841 -0.0136,-0.0715 -0.0137,-0.0716 0.11166,-0.0598 0.11166,-0.0598 0.13506,-0.12386 0.13506,-0.12386 h -1.42894 -1.42896 l 0.25741,0.12447 0.2574,0.12448 0.0668,-0.0627 0.0668,-0.0627 0.16379,-0.0487 0.16377,-0.0487 0.15817,0.0511 0.15817,0.0511 0.13497,0.0746 0.13499,0.0746 h 0.23957 0.23959 l 0.0152,0.0399 0.0152,0.0399 -0.0428,0.0586 -0.0429,0.0586 v 0.054 0.054 l 0.0686,0.048 0.0685,0.048 h 0.068 0.068 z m 2.19003,-0.2875 v -0.0875 l -0.0273,-0.0169 -0.0273,-0.0169 -0.0185,0.069 -0.0185,0.069 -4.6e-4,0.0531 -4.6e-4,0.0531 0.0463,-0.0178 0.0462,-0.0178 z m 0.51861,-0.0318 0.01,-0.1364 -0.0339,0.0336 -0.0339,0.0336 -0.0189,0.11714 -0.0189,0.11716 0.0432,-0.0143 0.0432,-0.0143 z m -0.26337,-0.006 0.0464,-0.10021 0.0211,-0.0701 0.0212,-0.0701 -0.0949,0.008 -0.0949,0.008 v 0.0667 0.0667 l 0.0193,0.0964 0.0193,0.0964 h 0.008 0.008 z m -0.9647,-0.10021 v -0.16965 h -0.17563 -0.17565 l 0.10479,0.0774 0.10479,0.0774 0.0584,0.0924 0.0585,0.0924 h 0.0124 0.0124 z m 0.30847,-0.006 v -0.0712 h -0.0463 -0.0463 l 9.3e-4,0.1311 9.3e-4,0.1311 0.0453,-0.0599 0.0453,-0.06 z m -11.582578,-0.10283 0.0925,-0.0605 -0.16194,-2.3e-4 -0.16194,-2.3e-4 1.5e-4,0.1465 1.5e-4,0.14652 0.0692,-0.0858 0.0692,-0.0857 z m 7.202788,-0.8616 -0.16996,-0.18374 -0.04,0.0945 -0.04,0.0945 -0.0179,0.0892 -0.0179,0.0892 h 0.2278 0.22779 z m 3.83998,0.15287 0.0191,-0.0308 h 0.0917 0.0917 l 0.10589,-0.0443 0.10587,-0.0443 0.0194,-0.0774 0.0194,-0.0774 -0.0202,-0.0325 -0.0201,-0.0325 h -0.086 -0.086 l -0.18219,0.0637 -0.18219,0.0637 -0.27533,-0.01 -0.27531,-0.01 -0.0251,0.0953 -0.0251,0.0954 -0.0698,0.0337 -0.0698,0.0337 0.42231,0.002 0.42231,0.002 z m 1.08387,-2.35198 -0.0188,-0.10022 -0.0672,-0.3016 -0.0672,-0.3016 -0.40363,0.009 -0.40364,0.009 -0.0651,0.26219 -0.0651,0.26219 -0.0168,0.13108 -0.0167,0.1311 h 0.57157 0.57157 z"
             id="path3" /><g
             id="g4"
             style="fill:#ffffff"><rect
               style="fill:#ffffff;stroke-width:0.281733;-inkscape-stroke:none"
               id="rect3"
               width="17.437149"
               height="1.7539018"
               x="82.021736"
               y="182.66563" /><rect
               style="fill:#ffffff;stroke-width:0.194706;-inkscape-stroke:none"
               id="rect3-4"
               width="14.210524"
               height="1.0279109"
               x="83.635048"
               y="185.21468" /><rect
               style="fill:#ffffff;stroke-width:0.612668;-inkscape-stroke:none"
               id="rect3-4-8"
               width="4.5306458"
               height="31.922855"
               x="85.006363"
               y="187.19905" /><rect
               style="fill:#ffffff;stroke-width:0.456381;-inkscape-stroke:none"
               id="rect3-4-8-4"
               width="2.5140045"
               height="31.922855"
               x="90.782021"
               y="187.19905" /><rect
               style="fill:#ffffff;stroke-width:0.338704;-inkscape-stroke:none"
               id="rect3-4-8-4-5"
               width="1.3846853"
               height="31.922855"
               x="94.379707"
               y="187.19905" /><rect
               style="fill:#ffffff;stroke-width:0.218836;-inkscape-stroke:none"
               id="rect3-4-8-4-5-7"
               width="0.5780288"
               height="31.922855"
               x="96.244698"
               y="187.19905" /></g></g></g></g></g></svg>
