<?xml version="1.0" encoding="UTF-8" standalone="no"?>
<!-- Created with Inkscape (http://www.inkscape.org/) -->

<svg
   width="114.37003mm"
   height="34.069462mm"
   viewBox="0 0 114.37001 34.069462"
   version="1.1"
   id="svg5"
   xml:space="preserve"
   xmlns="http://www.w3.org/2000/svg"
   xmlns:svg="http://www.w3.org/2000/svg"><defs
     id="defs2" /><g
     id="layer1"
     transform="translate(-57.654608,-68.396746)"><g
       id="g9"
       style="fill:#000000"><g
         id="g10"><g
           id="g8"
           style="fill:#000000"><path
             d="M 65.70182,84.18029 H 63.742016 V 70.352784 h -4.855959 v -1.720272 h 11.649946 v 1.720272 H 65.70182 Z m 19.07542,0 h -1.959804 v -7.251275 h -7.96987 V 84.18029 H 72.887762 V 68.632512 h 1.959804 v 6.576231 h 7.96987 v -6.576231 h 1.959804 z m 12.93469,0 H 89.023465 V 68.632512 h 8.688465 v 1.720272 h -6.728661 v 4.855959 h 6.3367 v 1.698497 h -6.3367 v 5.552778 h 6.728661 z"
             id="text494"
             style="font-size:21.7756px;line-height:0;font-family:Kailasa;-inkscape-font-specification:Kailasa;stroke-width:0.175971"
             transform="scale(0.98650151,1.0136832)"
             aria-label="THE" /><path
             d="m 66.803323,98.388832 q 0,1.927118 -1.399692,3.002238 -1.399693,1.07513 -3.773085,1.07513 -1.217124,0 -2.251679,-0.18257 -1.034556,-0.18257 -1.724259,-0.50714 v -1.74454 q 0.730274,0.32457 1.8054,0.58828 1.095412,0.26371 2.25168,0.26371 1.602546,0 2.434248,-0.62885 0.831701,-0.628848 0.831701,-1.703974 0,-0.709989 -0.304281,-1.196839 -0.304281,-0.48685 -1.054841,-0.892558 -0.750559,-0.405708 -2.048825,-0.892557 -1.866257,-0.669419 -2.799385,-1.643118 -0.933129,-0.973699 -0.933129,-2.657387 0,-1.135983 0.588277,-1.967684 0.588277,-0.831701 1.622832,-1.27798 1.034555,-0.446279 2.413963,-0.446279 1.176553,0 2.170537,0.223139 0.993985,0.22314 1.825687,0.588277 l -0.567992,1.561976 q -0.750559,-0.324567 -1.643117,-0.547706 -0.892558,-0.223139 -1.825686,-0.223139 -1.359122,0 -2.048826,0.588276 -0.689703,0.567991 -0.689703,1.521405 0,0.730275 0.304281,1.217124 0.304281,0.48685 0.993984,0.892558 0.689704,0.385422 1.866257,0.811416 1.27798,0.466564 2.150253,1.01427 0.892557,0.52742 1.338836,1.27798 0.466564,0.75056 0.466564,1.886542 z m 9.128426,-9.209571 q -2.332821,0 -3.671657,1.561975 -1.338837,1.561976 -1.338837,4.28022 0,2.697958 1.23741,4.280219 1.257695,1.561975 3.752799,1.561975 0.933128,0 1.785115,-0.16228 0.851987,-0.16229 1.683688,-0.40571 v 1.58226 q -0.811416,0.30428 -1.683688,0.44628 -0.851987,0.142 -2.048825,0.142 -2.211109,0 -3.691943,-0.91285 -1.480834,-0.91284 -2.231394,-2.596526 -0.730275,-1.683689 -0.730275,-3.955654 0,-2.190823 0.791131,-3.854226 0.811416,-1.683688 2.373392,-2.616816 1.561976,-0.953414 3.79337,-0.953414 2.29225,0 3.996224,0.851987 l -0.730275,1.54169 Q 78.548566,89.66611 77.716865,89.422685 76.905449,89.179261 75.931749,89.179261 Z m 17.68887,13.084079 h -1.825686 v -6.755035 h -7.424457 v 6.755035 H 82.54479 V 87.779568 h 1.825686 v 6.126191 h 7.424457 v -6.126191 h 1.825686 z m 12.049511,0 H 97.576254 V 87.779568 h 8.093876 v 1.602547 h -6.26819 v 4.523644 h 5.90305 v 1.582261 h -5.90305 v 5.17278 h 6.26819 z m 14.78805,-7.383882 q 0,3.671658 -2.00825,5.537912 -1.98797,1.84597 -5.5582,1.84597 h -4.0368 V 87.779568 h 4.46279 q 2.17054,0 3.77309,0.811416 1.62283,0.811416 2.4951,2.393677 0.87227,1.582261 0.87227,3.894797 z m -1.92711,0.06086 q 0,-2.900812 -1.44026,-4.239648 -1.41998,-1.359122 -4.0368,-1.359122 h -2.37339 v 11.359822 h 1.96768 q 5.88277,0 5.88277,-5.761052 z m 16.14717,-7.160746 v 9.371855 q 0,1.50112 -0.60856,2.718244 -0.60856,1.196839 -1.86626,1.906819 -1.25769,0.68971 -3.16452,0.68971 -2.71825,0 -4.11794,-1.46055 -1.39969,-1.480831 -1.39969,-3.894794 v -9.331284 h 1.82569 v 9.39214 q 0,1.76483 0.93312,2.738529 0.95342,0.973699 2.86025,0.973699 1.96768,0 2.83995,-1.034555 0.89256,-1.054841 0.89256,-2.697958 v -9.371855 z m 3.81367,14.483768 V 87.779568 h 1.82569 v 12.860942 h 6.32904 v 1.62283 z m 18.72343,0 h -8.09387 V 87.779568 h 8.09387 v 1.602547 h -6.26819 v 4.523644 h 5.90305 v 1.582261 h -5.90305 v 5.17278 h 6.26819 z m 7.18103,-14.483768 q 2.69796,0 3.97594,1.034555 1.29826,1.01427 1.29826,3.083381 0,1.156268 -0.42599,1.927113 -0.42599,0.770845 -1.09541,1.23741 -0.64914,0.466564 -1.37941,0.709989 l 3.97594,6.49132 h -2.12997 l -3.50937,-5.984185 h -2.88053 v 5.984185 h -1.82569 V 87.779568 Z m -0.10143,1.582261 h -2.06911 v 5.375631 h 2.17054 q 1.76483,0 2.57624,-0.689703 0.81142,-0.709989 0.81142,-2.069111 0,-1.419978 -0.85199,-2.008255 -0.85198,-0.608562 -2.6371,-0.608562 z"
             id="text502"
             style="font-size:20.2854px;line-height:0;font-family:Kailasa;-inkscape-font-specification:Kailasa;stroke-width:0.163929"
             aria-label="SCHEDULER" /></g><g
           id="g7"
           style="fill:#000000"><rect
             style="fill:#000000;stroke-width:0.0451968;-inkscape-stroke:none;stop-color:#000000"
             id="rect414"
             width="5.1328363"
             height="13.198722"
             x="136.17595"
             y="70.9142" /><rect
             style="fill:#000000;stroke-width:0.0456134;-inkscape-stroke:none;stop-color:#000000"
             id="rect416"
             width="0.97768307"
             height="5.1328363"
             x="137.8876"
             y="68.396744" /><rect
             style="fill:#000000;stroke-width:0.0456134;-inkscape-stroke:none;stop-color:#000000"
             id="rect418"
             width="11.976618"
             height="11.243356"
             x="141.87917"
             y="72.340401" /><rect
             style="fill:#000000;stroke-width:0.0456134;-inkscape-stroke:none;stop-color:#000000"
             id="rect420"
             width="3.1774702"
             height="6.5993609"
             x="154.42616"
             y="77.513565" /><rect
             style="fill:#000000;stroke-width:0.0456134;-inkscape-stroke:none;stop-color:#000000"
             id="rect422"
             width="3.9107323"
             height="13.931984"
             x="158.17401"
             y="70.180939" /><rect
             style="fill:#000000;stroke-width:0.0456134;-inkscape-stroke:none;stop-color:#000000"
             id="rect424"
             width="4.8884153"
             height="8.7991476"
             x="130.71716"
             y="75.842949" /><rect
             style="fill:#000000;stroke-width:0.0456134;-inkscape-stroke:none;stop-color:#000000"
             id="rect424-4"
             width="4.8884153"
             height="8.7991476"
             x="162.65512"
             y="75.842949" /><rect
             style="fill:#000000;stroke-width:0.0456134;-inkscape-stroke:none;stop-color:#000000"
             id="rect426"
             width="6.5993609"
             height="4.8884153"
             x="123.54739"
             y="80.282837" /><rect
             style="fill:#000000;stroke-width:0.0283091;-inkscape-stroke:none;stop-color:#000000"
             id="rect426-8"
             width="3.9107325"
             height="3.17747"
             x="168.11391"
             y="81.99379" /></g></g></g></g></svg>
